<svg height="512pt" viewBox="-94 0 512 512" width="512pt" xmlns="http://www.w3.org/2000/svg"><path d="m161.640625 0c-89.128906 0-161.640625 72.796875-161.640625 162.277344 0 36.078125 25.199219 104.902344 74.894531 204.558594 36.449219 73.082031 73.394531 137.039062 73.761719 137.675781 2.683594 4.636719 7.628906 7.488281 12.984375 7.488281 5.351563 0 10.300781-2.851562 12.980469-7.488281.371094-.636719 37.316406-64.59375 73.761718-137.675781 49.695313-99.65625 74.894532-168.480469 74.894532-204.558594.003906-89.480469-72.507813-162.277344-161.636719-162.277344zm0 0" fill="#ff415b"/><path d="m161.640625 0v512c5.351563 0 10.300781-2.851562 12.980469-7.488281.371094-.636719 37.316406-64.59375 73.761718-137.675781 49.695313-99.65625 74.894532-168.480469 74.894532-204.558594.003906-89.480469-72.507813-162.277344-161.636719-162.277344zm0 0" fill="#c7011c"/><path d="m226.769531 107.003906c-17.402343-17.40625-40.539062-26.992187-65.144531-27-.011719 0-.015625 0-.027344 0-24.597656 0-47.726562 9.578125-65.117187 26.972656-17.398438 17.394532-26.976563 40.53125-26.96875 65.140626.003906 24.609374 9.59375 47.742187 26.996093 65.148437 17.402344 17.402344 40.542969 26.988281 65.148438 26.996094h.023438c24.597656 0 47.726562-9.578125 65.117187-26.96875 17.398437-17.398438 26.976563-40.53125 26.96875-65.144531-.003906-24.605469-9.589844-47.742188-26.996094-65.144532zm0 0" fill="#ededf2"/><path d="m226.769531 107.003906c-17.398437-17.402344-40.527343-26.988281-65.128906-27v184.257813h.015625.023438c24.601562 0 47.726562-9.578125 65.117187-26.96875 17.398437-17.398438 26.976563-40.535157 26.972656-65.144531-.007812-24.605469-9.59375-47.742188-27-65.144532zm0 0" fill="#e2e2e7"/><path d="m182.851562 172.132812 11.367188-11.367187c5.859375-5.859375 5.859375-15.355469 0-21.210937-5.855469-5.859376-15.355469-5.859376-21.210938 0l-11.367187 11.367187-11.367187-11.367187c-5.859376-5.859376-15.355469-5.859376-21.214844 0-5.855469 5.855468-5.855469 15.351562 0 21.210937l11.367187 11.367187-11.367187 11.367188c-5.855469 5.859375-5.855469 15.355469 0 21.214844 2.929687 2.925781 6.769531 4.390625 10.605468 4.390625 3.839844 0 7.679688-1.464844 10.609376-4.390625l11.367187-11.367188 11.367187 11.367188c2.929688 2.925781 6.765626 4.390625 10.605469 4.390625 3.835938 0 7.675781-1.464844 10.605469-4.390625 5.859375-5.859375 5.859375-15.355469 0-21.214844zm0 0" fill="#ff415b"/><path d="m173.007812 204.714844c2.929688 2.929687 6.765626 4.390625 10.605469 4.390625 3.835938 0 7.675781-1.464844 10.605469-4.390625 5.859375-5.859375 5.859375-15.355469 0-21.214844l-11.367188-11.367188 11.367188-11.367187c5.859375-5.855469 5.859375-15.355469 0-21.210937-5.855469-5.859376-15.355469-5.859376-21.210938 0l-11.367187 11.367187v42.425781zm0 0" fill="#c7011c"/></svg>